<?xml version="1.0" encoding="UTF-8"?>
<svg id="Layer_1" xmlns="http://www.w3.org/2000/svg" version="1.1" viewBox="0 0 162 50">
  <!-- Generator: Adobe Illustrator 30.0.0, SVG Export Plug-In . SVG Version: 2.1.1 Build 123)  -->
  <defs>
    <style>
      .st0 {
        fill: #26505e;
      }

      .st1 {
        fill: #fff;
        font-family: BrushScriptMT, 'Brush Script MT';
        font-size: 22px;
      }

      .st2 {
        fill: #ce9e6e;
      }
    </style>
  </defs>
  <path class="st2" d="M156.35,38v-4.48h4.37v4.48h-4.37Z"/>
  <circle class="st0" cx="19.81" cy="25" r="19.35"/>
  <path class="st2" d="M39.16,25c0-10.69-8.66-19.35-19.35-19.35S.46,14.31.46,25c0,6.32,3.03,11.94,7.72,15.47,1.33-.71,2.5-1.69,3.43-2.87,1.46-1.85,2.33-4.18,2.33-6.72,0-4.23-2.42-7.89-5.94-9.68v-5.36c6.33,2.07,10.91,8.02,10.91,15.05,0,.25,0,.5-.02.75-.22,4.64-2.44,8.76-5.81,11.52,2.1.78,4.36,1.2,6.73,1.2s4.63-.42,6.73-1.2c-3.56-2.9-5.83-7.32-5.83-12.27,0-.25,0-.5.02-.75.31-6.69,4.78-12.3,10.89-14.3v5.36c-1.41.72-2.64,1.73-3.61,2.96-1.46,1.85-2.33,4.18-2.33,6.72,0,4.15,2.33,7.76,5.76,9.59,4.69-3.53,7.73-9.15,7.73-15.47ZM19.81,20.36c-2.94,0-5.33-2.39-5.33-5.33s2.39-5.33,5.33-5.33,5.33,2.39,5.33,5.33-2.39,5.33-5.33,5.33Z"/>
  <text class="st1" transform="translate(40.17 28.74)"><tspan x="0" y="0">Beauty Recovery</tspan></text>
</svg>